<?xml version="1.0" standalone="no"?>
<!DOCTYPE svg PUBLIC "-//W3C//DTD SVG 20010904//EN"
 "http://www.w3.org/TR/2001/REC-SVG-20010904/DTD/svg10.dtd">
<svg version="1.0" xmlns="http://www.w3.org/2000/svg"
 width="640.000000pt" height="640.000000pt" viewBox="0 0 640.000000 640.000000"
 preserveAspectRatio="xMidYMid meet">

<g transform="translate(0.000000,640.000000) scale(0.100000,-0.100000)"
fill="#000000" stroke="none">
<path d="M0 4130 l0 -2270 33 0 c42 0 211 26 255 39 18 5 35 10 37 11 55 10
70 18 103 55 20 23 47 62 60 86 36 71 55 99 97 142 34 35 37 42 21 45 -10 2
-21 0 -25 -5 -3 -4 -15 -13 -26 -19 -11 -6 -56 -52 -100 -102 -44 -49 -89 -93
-100 -97 -11 -4 -31 -15 -45 -25 -29 -20 -227 -47 -241 -33 -18 18 33 126 118
253 111 166 182 253 249 311 21 19 48 42 59 53 39 37 211 144 295 183 241 114
525 169 772 149 111 -10 138 -29 140 -99 0 -27 -5 -54 -11 -60 -6 -6 -11 -17
-11 -24 0 -40 -110 -162 -147 -163 -7 0 -13 -4 -13 -8 0 -4 -17 -19 -38 -32
-52 -33 -115 -116 -129 -171 -12 -47 -12 -93 0 -106 11 -10 8 -107 -4 -144
-12 -35 -115 -149 -135 -149 -7 0 -14 -7 -18 -15 -3 -8 -10 -15 -15 -15 -13 0
-61 -48 -61 -60 0 -5 -6 -13 -12 -17 -61 -39 -72 -213 -14 -213 29 0 49 24 66
78 26 83 130 149 320 202 132 37 152 47 230 111 36 30 51 52 74 113 37 98 77
140 148 156 29 6 78 20 108 30 30 10 80 26 110 35 80 24 211 90 269 136 37 30
69 24 112 -21 22 -22 45 -40 53 -40 7 0 44 11 81 25 259 98 513 134 617 87
137 -61 153 -185 50 -388 -32 -64 -174 -271 -201 -294 -7 -6 -110 -126 -131
-154 -11 -15 -15 -49 -15 -145 -1 -151 4 -140 -115 -281 -19 -23 -38 -47 -43
-55 -23 -41 -354 -345 -376 -345 -6 0 -11 -4 -11 -9 0 -9 -162 -121 -175 -121
-5 0 -22 -11 -40 -24 -17 -13 -71 -44 -121 -69 -49 -24 -111 -56 -138 -71 -27
-14 -55 -26 -62 -26 -8 0 -14 -4 -14 -9 0 -8 -128 -71 -145 -71 -5 0 -16 -6
-24 -13 -9 -8 -38 -22 -66 -32 -27 -10 -63 -25 -80 -35 -16 -9 -58 -27 -93
-40 -34 -12 -65 -27 -68 -31 -3 -5 -16 -9 -29 -9 -22 0 -40 23 -36 48 3 18
-33 15 -60 -6 -13 -10 -35 -23 -49 -30 -45 -23 -58 -37 -56 -62 1 -15 -7 -31
-19 -40 -25 -18 -112 -50 -140 -50 -25 -1 -150 -43 -167 -57 -7 -6 -31 -16
-53 -23 -22 -6 -54 -18 -72 -26 -17 -8 -51 -14 -75 -14 -26 0 -69 -12 -108
-30 l-65 -29 2958 -1 2957 0 0 1389 0 1389 -52 -15 c-29 -8 -104 -39 -167 -69
-63 -31 -124 -54 -137 -52 -20 3 -16 9 39 56 33 28 68 52 77 52 9 0 22 10 29
23 10 19 26 26 89 37 42 7 87 13 100 12 l22 0 0 500 0 500 -32 -8 c-61 -13
-189 -66 -236 -98 -55 -37 -96 -56 -121 -56 -10 0 -49 -16 -87 -37 -119 -63
-168 -87 -212 -106 -24 -11 -71 -41 -105 -69 -34 -27 -117 -77 -184 -110 -109
-53 -209 -111 -223 -129 -13 -16 -194 -82 -217 -78 -4 1 -36 1 -71 0 -60 -1
-64 -2 -73 -30 -9 -24 -17 -30 -55 -36 -25 -3 -60 -15 -77 -25 -22 -12 -63
-20 -127 -25 -52 -3 -144 -13 -204 -22 -178 -26 -370 -6 -429 46 -15 13 -40
15 -127 13 l-109 -2 -60 79 -61 80 0 307 0 307 68 -6 c37 -4 86 -7 110 -7 l42
0 0 -249 0 -249 74 -25 c41 -14 77 -23 80 -19 16 15 -1 165 -18 159 -16 -6
-46 12 -46 28 0 21 29 45 46 38 14 -5 15 12 13 148 l-3 153 85 -2 c46 -2 99
-6 117 -9 l32 -5 0 -276 0 -276 -41 -69 c-22 -38 -38 -71 -35 -74 3 -4 6 -3 6
2 0 4 7 2 15 -5 8 -7 15 -10 15 -6 0 4 18 -3 40 -14 l39 -20 1 382 c0 210 4
385 8 389 4 3 137 1 296 -5 l289 -11 9 -25 c5 -14 7 -54 3 -88 -6 -59 -8 -63
-28 -58 -12 3 -88 9 -168 12 l-146 7 -6 -48 c-13 -91 -20 -85 97 -85 58 0 107
-4 110 -9 4 -5 9 -43 12 -84 8 -88 19 -80 -133 -97 l-102 -12 6 -47 c3 -25 7
-48 9 -50 2 -2 41 2 86 9 46 7 107 15 137 18 36 3 49 7 40 13 -10 6 -6 9 14 9
15 0 56 13 91 29 34 17 76 33 92 37 16 3 43 14 59 24 17 9 78 25 137 34 59 10
137 29 175 43 37 14 99 32 136 39 68 14 143 58 279 165 71 55 131 80 216 90
102 11 124 17 190 46 86 38 231 83 248 76 12 -4 14 162 14 1276 l0 1281 -324
0 -324 0 -15 -22 c-8 -13 -27 -36 -43 -53 -49 -51 -169 -197 -204 -250 -19
-27 -42 -59 -51 -70 -9 -11 -23 -33 -31 -50 -63 -122 -62 -130 9 -140 26 -4
57 -9 67 -12 20 -5 20 -6 0 -20 -10 -8 -52 -31 -92 -51 -79 -39 -98 -59 -139
-149 -16 -35 -50 -81 -86 -117 -32 -33 -63 -70 -68 -84 -5 -13 -9 -69 -8 -123
1 -55 -1 -102 -5 -106 -8 -8 -3 -15 -56 92 -50 100 -60 106 -132 81 -59 -21
-177 -70 -219 -91 -38 -20 -217 -149 -265 -192 -17 -15 -63 -55 -103 -88 -91
-77 -93 -105 -6 -105 18 0 47 -3 65 -6 28 -6 22 -9 -60 -31 -95 -24 -146 -45
-215 -88 -90 -55 -144 -69 -146 -37 -2 59 -11 70 -70 81 -24 5 -36 9 -26 10 9
1 25 5 35 11 9 5 58 21 107 36 97 28 113 40 240 188 28 32 63 72 78 89 117
132 257 346 257 394 0 22 -31 36 -100 45 -41 5 -27 21 60 66 90 47 123 78 141
132 16 48 58 106 118 164 l51 49 0 118 c0 70 4 119 10 119 5 0 28 -38 50 -84
51 -106 58 -111 107 -95 158 52 274 110 391 197 98 72 212 170 212 182 0 6
-1034 10 -2805 10 l-2805 0 0 -2270z m1118 1896 c-2 -13 -10 -21 -23 -21 -23
0 -33 34 -14 45 20 13 40 -1 37 -24z m1408 -4 c21 -14 25 -45 8 -63 -30 -33
-74 -18 -74 26 0 36 37 57 66 37z m-238 -187 c7 -3 33 1 57 7 36 10 53 9 102
-6 176 -53 291 -222 265 -389 -18 -112 -66 -211 -87 -177 -3 4 0 32 6 60 17
80 -4 229 -43 302 -39 73 -119 132 -182 134 -22 1 -81 7 -131 14 -131 18 -274
8 -410 -30 -109 -31 -348 -139 -429 -195 -66 -45 -51 -19 21 35 65 50 239 141
333 175 80 29 258 71 325 78 36 4 155 -2 173 -8z m3579 -181 c8 -21 -13 -42
-28 -27 -13 13 -5 43 11 43 6 0 13 -7 17 -16z m-3841 -39 c15 -14 46 -37 70
-52 55 -35 67 -59 68 -136 1 -92 -31 -136 -174 -242 -36 -26 -66 -52 -68 -57
-2 -4 -10 -8 -18 -8 -18 0 -18 -14 1 -30 28 -23 -19 -70 -128 -130 -167 -91
-296 -136 -445 -156 -94 -12 -185 31 -151 72 8 10 37 14 113 14 108 0 192 18
221 47 26 25 6 33 -101 42 -103 8 -155 26 -174 60 -16 32 -12 76 13 112 12 19
44 68 70 109 69 112 188 220 307 280 135 67 231 96 327 99 32 1 48 -5 69 -24z
m248 -201 c3 -9 6 -27 6 -41 0 -29 -45 -163 -71 -213 -18 -34 -92 -100 -112
-100 -18 0 2 71 33 118 17 26 34 59 37 75 3 15 9 27 14 27 4 0 15 22 23 50 14
48 44 99 57 100 4 0 10 -7 13 -16z m272 -228 c7 -19 -37 -96 -96 -166 -50 -61
-178 -186 -225 -222 -17 -13 -41 -33 -52 -45 -12 -12 -42 -31 -66 -42 -24 -11
-50 -27 -57 -36 -7 -8 -19 -15 -26 -15 -7 0 -30 -10 -51 -21 -79 -45 -151 -79
-166 -79 -8 0 -35 -8 -59 -19 -82 -35 -244 -51 -212 -22 5 5 76 37 158 70 182
76 244 107 366 184 190 119 287 205 394 350 55 75 81 92 92 63z m1542 -125 c8
-4 12 -19 10 -32 -2 -19 -9 -24 -33 -24 -21 0 -31 5 -33 18 -8 40 22 60 56 38z
m-3418 -195 c13 -41 101 -133 163 -173 48 -30 48 -30 23 -37 -34 -8 -92 17
-173 75 -46 33 -64 53 -72 80 -16 54 -13 143 6 191 l17 43 13 -73 c6 -40 17
-88 23 -106z m5133 152 c37 -7 67 -16 67 -21 0 -6 -17 -7 -37 -4 -45 8 -212
-8 -308 -28 -38 -8 -119 -22 -180 -30 -76 -11 -124 -24 -154 -41 -48 -26 -74
-26 -130 2 -55 27 -48 51 22 74 33 10 43 9 83 -10 56 -28 85 -23 167 27 34 21
80 41 102 45 54 9 284 1 368 -14z m-873 -78 c0 -10 -19 -16 -80 -24 -19 -2
-65 -12 -101 -22 -63 -16 -114 -14 -93 5 28 25 274 62 274 41z m-3010 -49 c12
-24 13 -41 1 -60 -7 -11 -14 -11 -38 4 -29 17 -30 17 -132 -35 -116 -60 -194
-89 -332 -125 -176 -46 -329 -65 -408 -49 -51 10 -36 22 37 28 112 10 203 26
277 47 114 33 417 140 460 163 93 48 120 54 135 27z m755 -162 c14 -42 -45
-66 -61 -24 -10 25 4 45 30 45 16 0 27 -7 31 -21z m-1970 -149 c97 -75 203
-112 379 -131 44 -5 99 -12 121 -17 l40 -8 -55 -8 c-82 -11 -88 -11 -175 -3
-109 11 -247 64 -310 119 -26 23 -69 88 -58 88 3 0 29 -18 58 -40z m4590 -184
c0 -10 -8 -24 -18 -30 -14 -9 -21 -7 -32 7 -19 27 -8 49 24 45 18 -2 26 -9 26
-22z m-3480 -146 c0 -22 -29 -18 -33 3 -3 14 1 18 15 15 10 -2 18 -10 18 -18z
m1725 -796 l0 -407 -71 6 c-39 3 -73 8 -75 10 -2 2 -6 35 -10 74 l-7 70 -75 7
c-41 3 -104 6 -139 6 l-63 0 0 -70 0 -70 -57 0 c-32 0 -68 3 -80 6 l-23 6 0
369 0 369 48 1 c26 1 130 7 232 13 102 7 215 14 253 14 l67 2 0 -406z m-1534
350 l151 -6 46 -65 47 -64 0 -106 0 -107 -41 -42 -41 -42 41 -37 c41 -37 41
-38 41 -109 l0 -72 -54 -53 -54 -54 -214 12 c-117 6 -228 11 -245 11 l-33 0 0
376 0 376 103 -6 c56 -3 170 -9 253 -12z m886 -6 c2 -13 2 -127 0 -255 l-3
-232 -60 -7 c-33 -4 -61 -10 -64 -14 -2 -4 25 -53 61 -110 36 -56 64 -103 62
-105 -2 -1 -57 -5 -123 -8 l-120 -7 -63 96 c-34 52 -67 92 -72 89 -6 -3 -10
-46 -10 -95 0 -71 -3 -89 -16 -94 -9 -3 -56 -6 -105 -6 l-89 0 0 365 c0 201 1
365 3 366 7 3 492 36 539 38 52 1 57 -1 60 -21z m-348 -928 c14 -5 26 -17 26
-25 0 -12 -4 -14 -19 -5 -23 12 -41 13 -41 2 0 -4 14 -13 30 -19 52 -20 36
-83 -21 -83 -27 0 -59 22 -59 41 0 14 26 11 40 -6 14 -17 30 -20 30 -5 0 5
-13 16 -30 25 -23 12 -30 22 -30 44 0 39 26 50 74 31z m86 -14 c0 -13 -3 -44
-6 -70 -6 -37 -10 -46 -27 -46 -18 0 -19 5 -13 53 3 28 6 60 6 70 0 10 8 17
20 17 14 0 20 -7 20 -24z m103 -28 c6 -62 -12 -91 -51 -86 -32 4 -51 33 -34
50 11 11 15 10 23 -5 17 -29 26 -10 21 43 -4 45 -3 50 15 50 17 0 21 -8 26
-52z m107 -5 c14 -31 27 -61 29 -66 2 -5 -17 -6 -43 -2 -31 5 -46 4 -46 -4 0
-6 -9 -11 -20 -11 -24 0 -24 -4 -4 75 14 55 20 65 38 65 16 0 27 -14 46 -57z
m191 22 c4 -16 9 -37 13 -45 3 -8 2 -21 -3 -28 -10 -16 -91 -36 -102 -25 -4 4
-10 34 -14 65 l-7 57 33 4 c62 8 73 4 80 -28z m254 25 c22 2 89 4 150 4 l109
1 9 -45 10 -45 18 43 c20 46 8 42 141 46 17 1 24 -6 29 -29 4 -16 9 -37 13
-45 9 -24 -8 -41 -53 -51 -49 -11 -61 -6 -61 23 0 25 -10 18 -14 -9 -2 -10
-10 -19 -19 -21 -13 -3 -17 4 -17 30 l-1 33 -14 -34 c-12 -27 -18 -31 -29 -21
-8 6 -17 21 -19 33 -4 19 -4 18 -6 -4 -1 -23 -7 -27 -42 -33 -22 -4 -56 -4
-75 0 -33 6 -34 7 -34 55 0 40 -3 47 -16 42 -13 -5 -15 -16 -11 -50 3 -34 1
-46 -10 -50 -19 -8 -33 14 -33 53 0 29 -3 32 -37 36 -21 3 -46 8 -55 12 -10 5
-18 4 -18 -1 0 -5 14 -14 30 -20 51 -19 36 -83 -19 -83 -24 0 -61 25 -61 42 0
13 22 9 42 -9 10 -9 21 -13 26 -8 4 4 -2 12 -12 19 -27 16 -56 44 -56 55 0 24
34 43 64 35 17 -4 49 -6 71 -4z m580 -42 c33 -71 33 -81 -6 -73 -19 4 -41 2
-55 -6 -34 -17 -38 -8 -24 53 17 77 17 78 40 78 15 0 27 -14 45 -52z m140 11
c-8 -23 -15 -54 -15 -70 0 -22 -5 -29 -20 -29 -14 0 -20 7 -20 21 0 12 -14 39
-31 60 -26 33 -28 40 -14 45 8 4 24 -1 34 -10 23 -21 28 -20 34 4 3 12 14 20
26 20 19 0 20 -2 6 -41z m125 21 c43 -43 11 -120 -49 -120 -34 0 -61 31 -61
70 0 63 67 93 110 50z m-2083 -107 c64 -31 80 -58 39 -69 -24 -6 -86 21 -86
38 0 4 -8 8 -18 8 -10 0 -27 6 -37 14 -11 8 -24 12 -30 10 -16 -6 -38 13 -30
26 12 19 96 5 162 -27z m170 -81 c12 -8 12 -36 0 -48 -12 -12 -57 18 -57 38 0
19 34 25 57 10z m3043 -32 c24 -24 24 -29 4 -58 -18 -26 -41 -28 -66 -5 -22
20 -23 41 -1 65 21 23 38 23 63 -2z m-633 -239 c31 -16 151 -52 171 -52 10 0
78 2 152 6 132 6 137 7 217 47 64 31 88 39 110 33 l28 -7 -44 -38 c-92 -80
-205 -116 -391 -127 -81 -4 -102 -2 -143 16 -65 28 -125 78 -148 123 -25 49
-24 56 4 31 12 -11 32 -26 44 -32z m1523 1 c30 -24 21 -69 -15 -78 -48 -12
-73 39 -38 78 20 22 25 22 53 0z m-1362 -303 c2 -9 -5 -19 -14 -23 -21 -8 -50
17 -39 34 10 16 49 8 53 -11z m-2323 -1789 c9 -14 -35 -66 -67 -80 -21 -10
-31 -9 -47 2 -18 13 -18 15 -3 35 31 40 103 66 117 43z m-232 -163 c-12 -5
-23 -18 -26 -28 -6 -21 -64 -59 -92 -59 -11 0 -39 -9 -63 -20 -42 -19 -81 -24
-170 -21 -50 1 -48 16 3 25 19 4 35 11 35 16 0 6 18 13 40 16 22 4 40 9 40 13
0 4 21 13 48 20 77 21 116 33 137 42 36 14 50 16 59 11 6 -3 0 -10 -11 -15z"/>
<path d="M3140 3520 l0 -160 111 0 111 0 -6 28 c-3 15 -8 87 -12 160 l-7 132
-98 0 -99 0 0 -160z"/>
<path d="M1840 3561 l0 -111 104 0 105 0 5 53 c3 28 7 72 8 97 l3 44 -40 7
c-22 3 -73 10 -112 13 l-73 7 0 -110z"/>
<path d="M1830 3249 l0 -74 110 3 111 3 -7 62 c-4 34 -8 64 -10 65 -1 2 -48 6
-103 9 l-101 6 0 -74z"/>
<path d="M2529 3643 l-36 -4 -7 -67 c-3 -37 -6 -86 -6 -109 l0 -43 100 0 100
0 0 78 c0 42 -3 94 -6 115 l-7 37 -51 -2 c-28 -1 -67 -3 -87 -5z"/>
<path d="M2790 2813 c0 -13 5 -23 10 -23 13 0 13 11 0 30 -8 12 -10 11 -10 -7z"/>
<path d="M2966 2843 c-11 -11 -6 -23 9 -23 8 0 15 4 15 9 0 13 -16 22 -24 14z"/>
<path d="M2970 2792 c0 -14 11 -21 26 -15 21 8 17 23 -6 23 -11 0 -20 -4 -20
-8z"/>
<path d="M3424 2841 c-11 -11 -1 -21 21 -21 16 0 25 -6 25 -15 0 -11 -7 -14
-25 -9 -19 5 -25 2 -25 -10 0 -9 6 -16 13 -16 6 0 22 -3 35 -6 20 -6 22 -3 22
37 0 42 -1 44 -31 44 -17 0 -33 -2 -35 -4z"/>
<path d="M3680 2830 c0 -5 7 -10 15 -10 8 0 15 5 15 10 0 6 -7 10 -15 10 -8 0
-15 -4 -15 -10z"/>
<path d="M3692 2789 c2 -6 8 -10 13 -10 5 0 11 4 13 10 2 6 -4 11 -13 11 -9 0
-15 -5 -13 -11z"/>
<path d="M3820 2813 c0 -13 5 -23 10 -23 13 0 13 11 0 30 -8 12 -10 11 -10 -7z"/>
<path d="M4064 2836 c-10 -26 1 -51 24 -54 18 -3 22 1 22 22 0 30 -37 56 -46
32z"/>
<path d="M2950 2501 c-179 -39 -294 -77 -313 -105 -4 -6 -4 -34 -1 -63 7 -62
-15 -117 -72 -175 -35 -37 -143 -95 -214 -117 -19 -5 -75 -22 -125 -36 -122
-36 -175 -59 -255 -110 -69 -44 -106 -85 -77 -85 22 0 49 -37 43 -57 -3 -10
-31 -45 -62 -78 -31 -33 -64 -71 -73 -86 -89 -140 -181 -224 -326 -297 -186
-93 -250 -109 -476 -118 -163 -7 -169 -8 -169 -28 0 -15 17 -31 58 -56 l57
-35 189 3 c196 4 209 1 199 -37 -7 -29 -110 -89 -263 -154 -19 -8 -68 -23
-107 -33 -71 -17 -76 -17 -185 1 -103 18 -211 24 -488 28 -78 1 -102 -3 -135
-20 -54 -28 -96 -36 -128 -24 l-27 11 0 -415 0 -415 190 0 c127 0 190 4 190
11 0 5 33 25 73 43 39 19 85 47 101 64 15 17 40 33 54 37 15 4 29 10 32 13 3
4 30 18 60 31 105 45 340 164 340 173 0 4 7 8 15 8 8 0 24 9 35 20 11 11 23
20 28 20 15 0 101 86 115 115 9 17 33 49 54 71 21 21 46 51 55 66 10 15 44 58
75 96 32 38 74 88 93 112 48 59 133 152 203 222 62 60 100 78 172 78 71 1 178
20 255 46 137 48 325 126 355 149 36 27 149 132 322 298 67 64 128 117 136
117 28 0 154 144 246 283 67 99 108 188 122 260 9 52 8 63 -11 102 -29 59 -69
77 -185 81 -61 2 -118 -3 -175 -15z m-2634 -1978 c74 -73 98 -107 90 -128 -4
-12 -17 -8 -67 19 -50 27 -66 42 -86 82 -14 27 -31 56 -39 65 -8 8 -14 28 -14
44 l0 28 27 -24 c14 -13 54 -52 89 -86z"/>
<path d="M1124 2378 c-64 -74 -172 -137 -236 -138 -9 0 -29 -6 -45 -14 -15 -8
-56 -27 -91 -42 -71 -32 -152 -100 -152 -129 0 -25 -35 -95 -61 -123 -17 -19
-19 -30 -13 -67 6 -41 4 -45 -14 -45 -11 0 -32 4 -46 10 -29 11 -42 -2 -38
-36 4 -30 -16 -42 -96 -56 -57 -10 -79 -9 -106 0 -29 11 -46 10 -112 -8 -43
-11 -86 -20 -96 -20 -17 0 -18 -20 -18 -375 l0 -375 33 0 c48 1 232 55 266 79
16 12 32 21 36 21 5 0 36 18 71 40 35 22 66 40 70 40 28 0 243 201 293 274 81
117 96 166 80 267 -20 128 12 217 111 314 85 83 87 85 98 85 12 0 59 53 82 94
11 17 25 63 31 101 19 110 -2 154 -47 103z"/>
<path d="M1625 1649 c-4 -6 -5 -13 -2 -16 7 -7 27 6 27 18 0 12 -17 12 -25 -2z"/>
<path d="M1568 1594 c-7 -8 -25 -29 -41 -45 -15 -17 -24 -35 -21 -41 4 -7 10
-5 16 6 13 23 57 66 68 66 6 0 10 7 10 15 0 19 -16 19 -32 -1z"/>
<path d="M1467 1483 c-10 -9 -9 -23 2 -23 5 0 11 7 15 15 5 15 -5 20 -17 8z"/>
<path d="M1425 410 c-3 -5 -2 -10 4 -10 5 0 13 5 16 10 3 6 2 10 -4 10 -5 0
-13 -4 -16 -10z"/>
</g>
</svg>
